<svg xmlns="http://www.w3.org/2000/svg" viewBox="0 0 1600 900" preserveAspectRatio="xMidYMid slice">
  <defs>
    <linearGradient id="g0" x1="0" x2="1" y1="0" y2="1">
      <stop offset="0%" stop-color="#3b5129"/>
      <stop offset="100%" stop-color="#617c38"/>
    </linearGradient>
    <linearGradient id="g1" x1="0" x2="1">
      <stop offset="0%" stop-color="#a8d087"/>
      <stop offset="100%" stop-color="#426021"/>
    </linearGradient>
  </defs>
  <rect width="100%" height="100%" fill="url(#g0)"/>
  <circle cx="380" cy="240" r="190" fill="url(#g1)" opacity="0.95"/>
  <circle cx="1220" cy="300" r="260" fill="#d9e8b8" opacity="0.32"/>
  <path d="M240 680 C320 740 520 760 620 700 S860 600 980 650 C1080 690 1120 740 1180 700" fill="none" stroke="#bfd57b" stroke-width="80" stroke-linecap="round" opacity="0.8"/>
  <g transform="translate(420,260)">
    <path d="M0 0 C80 -90 180 -120 260 -70 C340 -20 420 -50 460 40 C500 130 420 240 320 260 C220 280 120 250 80 170 C40 90 20 50 0 0 Z" fill="#f3f8e2" opacity="0.9"/>
  </g>
</svg>