<svg xmlns="http://www.w3.org/2000/svg" viewBox="0 0 512 512">
  <!-- Background -->
  <rect width="512" height="512" rx="0" fill="#d6cda4"/>

  <!-- Outer bumps (depth / shadow layer) -->
  <circle cx="319.3" cy="429.8" r="28" fill="#4a5c2f"/>
  <circle cx="230.3" cy="439.2" r="28" fill="#4a5c2f"/>
  <circle cx="147.3" cy="405.7" r="28" fill="#4a5c2f"/>
  <circle cx="89.7" cy="337.1" r="28" fill="#4a5c2f"/>
  <circle cx="71.1" cy="249.5" r="28" fill="#4a5c2f"/>
  <circle cx="95.8" cy="163.5" r="28" fill="#4a5c2f"/>
  <circle cx="158.0" cy="99.1" r="28" fill="#4a5c2f"/>
  <circle cx="243.1" cy="71.5" r="28" fill="#4a5c2f"/>
  <circle cx="331.2" cy="87.0" r="28" fill="#4a5c2f"/>

  <!-- Inner arc (darker core) -->
  <circle cx="305.0" cy="340.9" r="30" fill="#3a4e25"/>
  <circle cx="262.8" cy="353.8" r="30" fill="#3a4e25"/>
  <circle cx="219.3" cy="346.9" r="30" fill="#3a4e25"/>
  <circle cx="183.2" cy="321.6" r="30" fill="#3a4e25"/>
  <circle cx="161.8" cy="283.0" r="30" fill="#3a4e25"/>
  <circle cx="159.5" cy="239.0" r="30" fill="#3a4e25"/>
  <circle cx="176.7" cy="198.4" r="30" fill="#3a4e25"/>
  <circle cx="210.0" cy="169.5" r="30" fill="#3a4e25"/>
  <circle cx="252.6" cy="158.1" r="30" fill="#3a4e25"/>
  <circle cx="295.9" cy="166.5" r="30" fill="#3a4e25"/>

  <!-- Main arc circles -->
  <circle cx="351.1" cy="369.4" r="36" fill="#445741"/>
  <circle cx="311.4" cy="393.2" r="36" fill="#445741"/>
  <circle cx="266.3" cy="403.6" r="36" fill="#445741"/>
  <circle cx="220.2" cy="399.6" r="36" fill="#445741"/>
  <circle cx="177.6" cy="381.5" r="36" fill="#445741"/>
  <circle cx="142.6" cy="351.1" r="36" fill="#445741"/>
  <circle cx="118.8" cy="311.4" r="36" fill="#445741"/>
  <circle cx="108.4" cy="266.3" r="36" fill="#445741"/>
  <circle cx="112.4" cy="220.2" r="36" fill="#445741"/>
  <circle cx="130.5" cy="177.6" r="36" fill="#445741"/>
  <circle cx="160.9" cy="142.6" r="36" fill="#445741"/>
  <circle cx="200.6" cy="118.8" r="36" fill="#445741"/>
  <circle cx="245.7" cy="108.4" r="36" fill="#445741"/>
  <circle cx="291.8" cy="112.4" r="36" fill="#445741"/>
  <circle cx="334.4" cy="130.5" r="36" fill="#445741"/>

  <!-- Horizontal bar (bottom layer) -->
  <circle cx="290" cy="238" r="24" fill="#3a4e25"/>
  <circle cx="328" cy="238" r="24" fill="#3a4e25"/>
  <circle cx="366" cy="238" r="24" fill="#3a4e25"/>
  <circle cx="404" cy="238" r="24" fill="#3a4e25"/>
  <circle cx="290" cy="286" r="24" fill="#4a5c2f"/>
  <circle cx="328" cy="286" r="24" fill="#4a5c2f"/>
  <circle cx="366" cy="286" r="24" fill="#4a5c2f"/>
  <circle cx="404" cy="286" r="24" fill="#4a5c2f"/>
  <circle cx="270" cy="262" r="30" fill="#445741"/>
  <circle cx="296" cy="262" r="30" fill="#445741"/>
  <circle cx="322" cy="262" r="30" fill="#445741"/>
  <circle cx="348" cy="262" r="30" fill="#445741"/>
  <circle cx="374" cy="262" r="30" fill="#445741"/>
  <circle cx="400" cy="262" r="30" fill="#445741"/>
</svg>
