<svg xmlns="http://www.w3.org/2000/svg" width="120" height="120" viewBox="0 0 120 120"><defs><style> .leaf { fill:#445741; } .bg { fill:#D6CDA4; } </style><symbol id="leaf" overflow="visible"><g><ellipse class="leaf" cx="0" cy="0" rx="2.2" ry="1.1" transform="rotate(-25)"/><ellipse class="leaf" cx="1.8" cy="-0.2" rx="2.2" ry="1.1" transform="rotate(18)"/><rect x="-0.8" y="-0.2" width="1.2" height="0.4" class="leaf"/></g></symbol></defs><rect class="bg" x="0" y="0" width="120" height="120" rx="8" ry="8"/><clipPath id="clipTop"><rect x="6" y="0" width="108" height="20"/></clipPath><clipPath id="clipBottom"><rect x="6" y="100" width="108" height="20"/></clipPath><clipPath id="clipLeft"><rect x="0" y="6" width="20" height="108"/></clipPath><clipPath id="clipRight"><rect x="100" y="6" width="20" height="108"/></clipPath><g clip-path="url(#clipTop)"><use href="#leaf" x="8" y="12" transform="rotate(-12,8,12)"/><use href="#leaf" x="12" y="12" transform="rotate(15,12,12)"/><use href="#leaf" x="16" y="12" transform="rotate(-6,16,12)"/><use href="#leaf" x="20" y="12" transform="rotate(28,20,12)"/><use href="#leaf" x="24" y="12" transform="rotate(-18,24,12)"/><use href="#leaf" x="28" y="12" transform="rotate(8,28,12)"/><use href="#leaf" x="32" y="12" transform="rotate(-22,32,12)"/><use href="#leaf" x="36" y="12" transform="rotate(12,36,12)"/><use href="#leaf" x="40" y="12" transform="rotate(-10,40,12)"/><use href="#leaf" x="44" y="12" transform="rotate(35,44,12)"/><use href="#leaf" x="48" y="12" transform="rotate(-15,48,12)"/><use href="#leaf" x="52" y="12" transform="rotate(18,52,12)"/><use href="#leaf" x="56" y="12" transform="rotate(-8,56,12)"/><use href="#leaf" x="60" y="12" transform="rotate(22,60,12)"/><use href="#leaf" x="64" y="12" transform="rotate(-16,64,12)"/><use href="#leaf" x="68" y="12" transform="rotate(10,68,12)"/><use href="#leaf" x="72" y="12" transform="rotate(-26,72,12)"/><use href="#leaf" x="76" y="12" transform="rotate(20,76,12)"/><use href="#leaf" x="80" y="12" transform="rotate(-12,80,12)"/><use href="#leaf" x="84" y="12" transform="rotate(14,84,12)"/><use href="#leaf" x="88" y="12" transform="rotate(-6,88,12)"/><use href="#leaf" x="92" y="12" transform="rotate(30,92,12)"/><use href="#leaf" x="96" y="12" transform="rotate(-18,96,12)"/><use href="#leaf" x="100" y="12" transform="rotate(12,100,12)"/><use href="#leaf" x="104" y="12" transform="rotate(-10,104,12)"/></g><g clip-path="url(#clipBottom)"><use href="#leaf" x="8" y="108" transform="rotate(18,8,108)"/><use href="#leaf" x="12" y="108" transform="rotate(-14,12,108)"/><use href="#leaf" x="16" y="108" transform="rotate(6,16,108)"/><use href="#leaf" x="20" y="108" transform="rotate(-30,20,108)"/><use href="#leaf" x="24" y="108" transform="rotate(16,24,108)"/><use href="#leaf" x="28" y="108" transform="rotate(-10,28,108)"/><use href="#leaf" x="32" y="108" transform="rotate(26,32,108)"/><use href="#leaf" x="36" y="108" transform="rotate(-20,36,108)"/><use href="#leaf" x="40" y="108" transform="rotate(12,40,108)"/><use href="#leaf" x="44" y="108" transform="rotate(-18,44,108)"/><use href="#leaf" x="48" y="108" transform="rotate(8,48,108)"/><use href="#leaf" x="52" y="108" transform="rotate(-22,52,108)"/><use href="#leaf" x="56" y="108" transform="rotate(14,56,108)"/><use href="#leaf" x="60" y="108" transform="rotate(-12,60,108)"/><use href="#leaf" x="64" y="108" transform="rotate(10,64,108)"/><use href="#leaf" x="68" y="108" transform="rotate(-24,68,108)"/><use href="#leaf" x="72" y="108" transform="rotate(16,72,108)"/><use href="#leaf" x="76" y="108" transform="rotate(-8,76,108)"/><use href="#leaf" x="80" y="108" transform="rotate(22,80,108)"/><use href="#leaf" x="84" y="108" transform="rotate(-16,84,108)"/><use href="#leaf" x="88" y="108" transform="rotate(12,88,108)"/><use href="#leaf" x="92" y="108" transform="rotate(-14,92,108)"/><use href="#leaf" x="96" y="108" transform="rotate(6,96,108)"/><use href="#leaf" x="100" y="108" transform="rotate(-20,100,108)"/><use href="#leaf" x="104" y="108" transform="rotate(10,104,108)"/></g><g clip-path="url(#clipLeft)"><use href="#leaf" x="12" y="12" transform="rotate(102,12,12)"/><use href="#leaf" x="12" y="16" transform="rotate(76,12,16)"/><use href="#leaf" x="12" y="20" transform="rotate(88,12,20)"/><use href="#leaf" x="12" y="24" transform="rotate(110,12,24)"/><use href="#leaf" x="12" y="28" transform="rotate(84,12,28)"/><use href="#leaf" x="12" y="32" transform="rotate(96,12,32)"/><use href="#leaf" x="12" y="36" transform="rotate(72,12,36)"/><use href="#leaf" x="12" y="40" transform="rotate(104,12,40)"/><use href="#leaf" x="12" y="44" transform="rotate(86,12,44)"/><use href="#leaf" x="12" y="48" transform="rotate(98,12,48)"/><use href="#leaf" x="12" y="52" transform="rotate(80,12,52)"/><use href="#leaf" x="12" y="56" transform="rotate(92,12,56)"/><use href="#leaf" x="12" y="60" transform="rotate(106,12,60)"/><use href="#leaf" x="12" y="64" transform="rotate(88,12,64)"/><use href="#leaf" x="12" y="68" transform="rotate(100,12,68)"/><use href="#leaf" x="12" y="72" transform="rotate(84,12,72)"/><use href="#leaf" x="12" y="76" transform="rotate(96,12,76)"/><use href="#leaf" x="12" y="80" transform="rotate(110,12,80)"/><use href="#leaf" x="12" y="84" transform="rotate(82,12,84)"/><use href="#leaf" x="12" y="88" transform="rotate(94,12,88)"/><use href="#leaf" x="12" y="92" transform="rotate(78,12,92)"/><use href="#leaf" x="12" y="96" transform="rotate(90,12,96)"/><use href="#leaf" x="12" y="100" transform="rotate(104,12,100)"/><use href="#leaf" x="16" y="100" transform="rotate(104,12,100)"/></g><g clip-path="url(#clipRight)"><use href="#leaf" x="108" y="12" transform="rotate(-102,108,12)"/><use href="#leaf" x="108" y="16" transform="rotate(-76,108,16)"/><use href="#leaf" x="108" y="20" transform="rotate(-88,108,20)"/><use href="#leaf" x="108" y="24" transform="rotate(-110,108,24)"/><use href="#leaf" x="108" y="28" transform="rotate(-84,108,28)"/><use href="#leaf" x="108" y="32" transform="rotate(-96,108,32)"/><use href="#leaf" x="108" y="36" transform="rotate(-72,108,36)"/><use href="#leaf" x="108" y="40" transform="rotate(-104,108,40)"/><use href="#leaf" x="108" y="44" transform="rotate(-86,108,44)"/><use href="#leaf" x="108" y="48" transform="rotate(-98,108,48)"/><use href="#leaf" x="108" y="52" transform="rotate(-80,108,52)"/><use href="#leaf" x="108" y="56" transform="rotate(-92,108,56)"/><use href="#leaf" x="108" y="60" transform="rotate(-106,108,60)"/><use href="#leaf" x="108" y="64" transform="rotate(-88,108,64)"/><use href="#leaf" x="108" y="68" transform="rotate(-100,108,68)"/><use href="#leaf" x="108" y="72" transform="rotate(-84,108,72)"/><use href="#leaf" x="108" y="76" transform="rotate(-96,108,76)"/><use href="#leaf" x="108" y="80" transform="rotate(-110,108,80)"/><use href="#leaf" x="108" y="84" transform="rotate(-82,108,84)"/><use href="#leaf" x="108" y="88" transform="rotate(-94,108,88)"/><use href="#leaf" x="108" y="92" transform="rotate(-78,108,92)"/><use href="#leaf" x="108" y="96" transform="rotate(-90,108,96)"/><use href="#leaf" x="108" y="100" transform="rotate(-104,108,100)"/><use href="#leaf" x="103" y="99" transform="rotate(-104,108,100)"/><use href="#leaf" x="98" y="98" transform="rotate(-104,108,100)"/></g></svg>